<svg width="150" height="150" viewBox="0 0 150 150" fill="none" xmlns="http://www.w3.org/2000/svg">
<path d="M101.367 79.6875V43.9453C101.367 29.4056 89.5397 17.5781 75 17.5781C60.4603 17.5781 48.6328 29.4056 48.6328 43.9453V79.6875H31.0547V43.9453C31.0547 19.7153 50.77 0 75 0C99.23 0 118.945 19.7153 118.945 43.9453V79.6875H101.367Z" fill="#C4CAD9"/>
<path d="M101.367 43.9453V79.6875H118.945V43.9453C118.945 19.7153 99.23 0 75 0V17.5781C89.5397 17.5781 101.367 29.4056 101.367 43.9453Z" fill="#BBC2CD"/>
<path d="M118.945 150H31.0547C23.785 150 17.8711 144.086 17.8711 136.816V84.082C17.8711 76.8123 23.785 70.8984 31.0547 70.8984H118.945C126.215 70.8984 132.129 76.8123 132.129 84.082V136.816C132.129 144.086 126.215 150 118.945 150Z" fill="#FCB33B"/>
<path d="M118.945 70.8984H75V150H118.945C126.215 150 132.129 144.086 132.129 136.816V84.082C132.129 76.8123 126.215 70.8984 118.945 70.8984Z" fill="#F69838"/>
<path d="M88.1836 101.66C88.1836 94.3904 82.2697 88.4766 75 88.4766C67.7303 88.4766 61.8164 94.3904 61.8164 101.66C61.8164 107.385 65.5008 112.217 70.6055 114.037V128.027C70.6055 130.456 72.571 132.422 75 132.422C77.429 132.422 79.3945 130.456 79.3945 128.027V114.037C84.4992 112.217 88.1836 107.385 88.1836 101.66Z" fill="#5C5F66"/>
<path d="M79.3945 128.027V114.037C84.4992 112.217 88.1836 107.385 88.1836 101.66C88.1836 94.3904 82.2697 88.4766 75 88.4766V132.422C77.429 132.422 79.3945 130.456 79.3945 128.027Z" fill="#53565C"/>
</svg>
