<svg width="150" height="150" viewBox="0 0 150 150" fill="none" xmlns="http://www.w3.org/2000/svg">
<g clip-path="url(#clip0_794_7117)">
<path d="M75.0005 136.364C108.891 136.364 136.364 108.89 136.364 75C136.364 41.1097 108.891 13.6362 75.0005 13.6362C41.1102 13.6362 13.6367 41.1097 13.6367 75C13.6367 108.89 41.1102 136.364 75.0005 136.364Z" fill="#ECF0F9"/>
<path d="M68.1817 68.1817L37.5 119.318L88.6362 88.6362L119.318 37.5L68.1817 68.1817Z" fill="#D5E3EF"/>
<path d="M75 0C33.409 0 0 33.409 0 75C0 116.591 33.409 150 75 150C116.591 150 150 116.591 150 75C150 33.409 116.591 0 75 0ZM75 136.364C41.25 136.364 13.6362 108.75 13.6362 75C13.6362 41.25 41.25 13.6362 75 13.6362C108.75 13.6362 136.364 41.25 136.364 75C136.364 108.75 108.75 136.364 75 136.364Z" fill="#595A66"/>
<path d="M18.7505 80.1138C18.7505 46.3638 46.3643 18.75 80.1143 18.75C95.796 18.75 110.114 24.5455 120.683 34.4317C109.432 21.4772 93.4095 13.6362 75.0005 13.6362C41.2505 13.6362 13.6367 41.25 13.6367 75C13.6367 93.409 21.4777 109.432 34.4322 120.682C24.546 110.114 18.7505 95.7955 18.7505 80.1138Z" fill="#D5E3EF"/>
<path d="M17.0455 78.4088H3.40898C1.36377 78.4088 0 77.0453 0 74.9998C0 72.9543 1.36377 71.5908 3.40898 71.5908H17.0452C19.0907 71.5908 20.4542 72.9546 20.4542 74.9998C20.4545 77.0453 19.091 78.4088 17.0455 78.4088Z" fill="#595A66"/>
<path d="M13.9777 71.5908C13.6367 72.6136 13.6367 73.9771 13.6367 74.9998C13.6367 76.0226 13.6367 77.386 13.9777 78.4088H17.046C17.7277 78.4088 18.4098 78.0678 18.7505 77.727C18.7505 76.0226 19.0915 73.977 19.0915 72.2726C18.7505 71.9315 18.0688 71.5908 17.046 71.5908H13.9777Z" fill="#494A52"/>
<path d="M146.592 78.409H132.956C130.91 78.409 129.547 77.0452 129.547 75C129.547 72.9545 130.91 71.591 132.956 71.591H146.592C148.637 71.591 150.001 72.9548 150.001 75C150.001 77.0455 148.637 78.409 146.592 78.409ZM71.5918 17.0455V3.40898C71.5918 1.36377 72.9553 0 75.0008 0C77.0463 0 78.4098 1.36377 78.4098 3.40898V17.0452C78.4098 19.0907 77.046 20.4542 75.0008 20.4542C72.9553 20.4545 71.5918 19.091 71.5918 17.0455Z" fill="#595A66"/>
<path d="M75.0008 13.6362C73.978 13.6362 72.6146 13.6362 71.5918 13.9772V17.0455C71.5918 18.0683 71.9328 18.75 72.6145 19.4317C74.319 19.0907 76.0235 19.0907 78.069 19.0907C78.069 18.409 78.4101 17.727 78.4101 17.0452V13.9772C77.387 13.6362 76.0235 13.6362 75.0008 13.6362Z" fill="#494A52"/>
<path d="M71.5918 146.591V132.955C71.5918 130.909 72.9556 129.546 75.0008 129.546C77.0463 129.546 78.4098 130.91 78.4098 132.955V146.591C78.4098 148.637 77.046 150 75.0008 150C72.9553 150 71.5918 148.636 71.5918 146.591Z" fill="#595A66"/>
<path d="M75.0008 112.5C72.9553 112.5 71.5918 111.136 71.5918 109.091V40.909C71.5918 38.8635 72.9556 37.5 75.0008 37.5C77.0463 37.5 78.4098 38.8638 78.4098 40.909V109.091C78.4098 111.136 77.0463 112.5 75.0008 112.5Z" fill="#B0C4D9"/>
<path d="M71.5918 98.5227L78.4098 94.4317V62.3862L71.5918 66.1362V98.5227Z" fill="#89ABC6"/>
<path d="M91.7045 91.7045C90.3407 93.0682 88.2955 93.0682 86.9317 91.7045L57.9545 62.7272C56.5907 61.3635 56.5907 59.3182 57.9545 57.9545C59.3182 56.5907 61.3635 56.5907 62.7272 57.9545L91.7045 86.9317C93.0682 88.2955 93.0682 90.6817 91.7045 91.7045Z" fill="#B0C4D9"/>
<path d="M85.5676 90.3408L88.6356 88.636L90.3403 85.5681L71.2493 66.4771L68.1811 68.1815L66.4766 71.2498L85.5676 90.3408Z" fill="#89ABC6"/>
<path d="M37.5 74.9998C37.5 72.9543 38.8638 71.5908 40.909 71.5908H109.091C111.136 71.5908 112.5 72.9546 112.5 74.9998C112.5 77.0453 111.136 78.4088 109.091 78.4088H40.909C38.8638 78.4088 37.5 77.0453 37.5 74.9998Z" fill="#B0C4D9"/>
<path d="M62.3867 78.4088H94.4322L98.5232 71.5908H66.1367L62.3867 78.4088Z" fill="#89ABC6"/>
<path d="M85.2279 85.2271L64.7734 64.7726L115.91 34.0908L85.2279 85.2271Z" fill="#F04B4D"/>
<path d="M64.7735 64.7729L85.228 85.2274L34.0918 115.909L64.7735 64.7729Z" fill="#4C9CD6"/>
<path d="M64.7735 64.7729L34.0918 115.909L75.0008 75.0002L64.7735 64.7729Z" fill="#70B7E5"/>
<path d="M75.0007 74.9998L115.91 34.0908L64.7734 64.7726L75.0007 74.9998Z" fill="#F26A56"/>
<path d="M74.9999 81.8182C78.7655 81.8182 81.8182 78.7655 81.8182 74.9999C81.8182 71.2343 78.7655 68.1816 74.9999 68.1816C71.2343 68.1816 68.1816 71.2343 68.1816 74.9999C68.1816 78.7655 71.2343 81.8182 74.9999 81.8182Z" fill="#595A66"/>
<path d="M77.727 68.8638C78.0681 69.8865 78.4088 70.5683 78.4088 71.591C78.4088 75.341 75.3405 78.4093 71.5905 78.4093C70.5678 78.4093 69.545 78.0683 68.8633 77.7275C69.886 80.1138 72.2723 81.8186 74.9995 81.8186C78.7495 81.8186 81.8178 78.7503 81.8178 75.0003C81.8181 72.2728 80.1136 69.8862 77.727 68.8638Z" fill="#494A52"/>
<path d="M75 0C33.409 0 0 33.409 0 75C3.75 75 6.81826 72.2728 7.15898 68.5228C8.86377 52.159 16.0228 37.159 27.2728 26.25C38.1817 15.6817 52.5 8.52275 68.5228 7.15898C72.2728 6.81826 75 3.75 75 0Z" fill="#6F707E"/>
<path d="M75 150C116.591 150 150 116.591 150 75C146.25 75 143.182 77.7272 142.841 81.4772C141.477 97.5 134.318 111.818 123.75 122.727C112.841 133.977 98.1817 141.136 81.4772 142.841C77.7272 143.182 75 146.25 75 150Z" fill="#494A52"/>
<path d="M73.2963 74.9998C74.2377 74.9998 75.0008 74.2367 75.0008 73.2953C75.0008 72.3539 74.2377 71.5908 73.2963 71.5908C72.3549 71.5908 71.5918 72.3539 71.5918 73.2953C71.5918 74.2367 72.3549 74.9998 73.2963 74.9998Z" fill="#6F707E"/>
</g>
<defs>
<clipPath id="clip0_794_7117">
<rect width="150" height="150" fill="white"/>
</clipPath>
</defs>
</svg>
