<svg width="150" height="150" viewBox="0 0 150 150" fill="none" xmlns="http://www.w3.org/2000/svg">
<path d="M122.535 72.9788L118.725 42.0259L111.584 42.9048L111.587 42.8998L97.7446 35.1095C96.268 34.2786 94.5734 33.9171 92.8863 34.073L71.0291 36.0945C69.7049 36.2169 68.4291 36.6543 67.3083 37.3701C66.1874 38.0858 65.254 39.0593 64.5859 40.2092L49.1805 66.7251C48.0429 68.683 48.9359 71.194 51.0543 71.9941L51.6845 72.232C52.8968 72.6899 54.1428 72.9551 55.3882 73.0588L53.4361 74.7589L49.5309 78.1614L38.4236 87.636C36.4464 89.3583 36.241 92.3554 37.9634 94.3326L39.0901 95.6231C41.302 98.1597 45.1519 98.423 47.6931 96.2105L51.9382 101.08C53.3184 102.665 55.3404 103.366 57.2831 103.127C58.491 102.978 59.6262 102.47 60.5409 101.667L64.7813 106.536C66.1665 108.126 68.1882 108.822 70.1309 108.583C71.3384 108.436 72.4738 107.929 73.3893 107.128L75.6938 109.12C77.9063 111.66 81.7606 111.923 84.3018 109.711L87.4345 106.978L113.771 86.4664L113.799 86.4404L124.19 86.4301L122.535 72.9788Z" fill="#F29F5C"/>
<path d="M111.248 78.4661L111.22 78.4922L84.8832 99.0034L81.7505 101.737C79.2096 103.949 75.355 103.686 73.1425 101.145L70.838 99.1537C69.9226 99.9548 68.7872 100.462 67.5796 100.609C65.6369 100.848 63.6155 100.151 62.23 98.5622L57.9896 93.6928C57.0747 94.4951 55.9396 95.0036 54.7318 95.1524C52.7891 95.3914 50.7671 94.6907 49.3869 93.1054L45.1418 88.2363C42.9662 90.1306 39.8338 90.2044 37.5888 88.5958C36.4374 90.3319 36.5294 92.685 37.9647 94.3326L39.0914 95.6232C41.3033 98.1597 45.1532 98.4231 47.6944 96.2106L51.9395 101.08C53.3197 102.665 55.3418 103.366 57.2844 103.127C58.4923 102.978 59.6275 102.47 60.5422 101.667L64.7827 106.537C66.1678 108.126 68.1896 108.822 70.1322 108.583C71.3398 108.436 72.4752 107.929 73.3906 107.128L75.6951 109.12C77.9076 111.661 81.7619 111.924 84.3031 109.711L87.4358 106.978L113.772 86.4668L113.801 86.4407L124.192 86.4304L123.042 77.0918L111.248 78.4661Z" fill="#D37D42"/>
<path d="M116.045 91.8549L101.934 79.6879L98.01 76.3071L95.2022 73.889L83.1298 63.4827L84.5241 51.6146C84.9958 47.6007 82.4689 43.8428 78.5736 42.7649L52.2578 35.4832C50.907 35.1095 49.4687 35.2131 48.1854 35.7765C46.9021 36.3399 45.8524 37.3287 45.2134 38.5761L41.904 45.036L27.6986 44.0719L24.06 75.0456L22.4785 88.506L36.306 89.4256L36.3347 89.4517L65.2219 114.352L68.3698 117.068C70.9231 119.266 74.7759 118.982 76.9743 116.429L81.1872 111.54C82.1071 112.336 83.2453 112.837 84.4538 112.977C86.3976 113.206 88.4156 112.498 89.7919 110.901L94.0054 106.008C94.9247 106.806 96.0627 107.308 97.2714 107.45C99.2152 107.678 101.233 106.966 102.605 105.373L106.823 100.481C109.376 102.679 113.224 102.394 115.422 99.8456L116.542 98.5486C118.253 96.5623 118.031 93.5664 116.045 91.8549Z" fill="#F9C295"/>
<path d="M116.045 91.855L111.747 88.1489C113.144 90.0014 113.115 92.6366 111.539 94.4665L110.35 95.8431C108.017 98.5487 103.932 98.851 101.222 96.5173L96.7438 101.711C95.2881 103.402 93.1456 104.158 91.0819 103.915C89.7989 103.765 88.5909 103.232 87.615 102.385L83.1419 107.579C81.6809 109.274 79.539 110.025 77.4753 109.783C76.1925 109.634 74.9842 109.103 74.0078 108.258L69.5353 113.447C68.7251 114.389 67.6593 115.076 66.4668 115.425L68.3708 117.068C70.924 119.266 74.7768 118.982 76.9753 116.429L81.1881 111.541C82.1081 112.337 83.2463 112.837 84.4547 112.978C86.3986 113.206 88.4165 112.498 89.7929 110.902L94.0063 106.009C94.9256 106.806 96.0637 107.308 97.2723 107.45C99.2162 107.679 101.234 106.967 102.606 105.374L106.824 100.481C109.377 102.68 113.225 102.395 115.423 99.8459L116.543 98.549C118.254 96.5624 118.032 93.5665 116.045 91.855Z" fill="#E59F6A"/>
<path d="M108.251 98.8516L100.519 92.1848C100.077 91.814 99.5058 91.6324 98.9303 91.6791C98.3548 91.7258 97.8208 91.9972 97.4438 92.4345C97.0668 92.8718 96.877 93.4399 96.9155 94.016C96.954 94.5922 97.2177 95.13 97.6496 95.5132L105.368 102.168L106.823 100.481C107.386 100.964 108.034 101.341 108.733 101.591C108.981 101.149 109.068 100.635 108.98 100.136C108.893 99.6363 108.635 99.1827 108.251 98.8516ZM95.8889 107.116C96.4183 106.219 96.2487 105.044 95.4313 104.339L88.4856 98.3506C88.043 97.9798 87.4722 97.7982 86.8967 97.8449C86.3212 97.8916 85.7872 98.163 85.4101 98.6003C85.0331 99.0376 84.8433 99.6057 84.8819 100.182C84.9204 100.758 85.1841 101.296 85.616 101.679L92.5617 107.668L92.5705 107.674L94.0054 106.008C94.5611 106.488 95.1992 106.864 95.8889 107.116Z" fill="#E59F6A"/>
<path d="M37.0267 89.3945L35.353 91.6047C33.5305 94.0114 34.0039 97.44 36.4106 99.2628C38.8174 101.085 42.246 100.612 44.0688 98.2052L45.7425 95.9951C47.5651 93.5883 47.0916 90.1597 44.6849 88.3369C42.2782 86.5143 38.8493 86.9878 37.0267 89.3945ZM47.2208 94.043L44.0688 98.2052C42.2462 100.612 42.7197 104.041 45.1264 105.863C47.5331 107.686 50.9617 107.213 52.7846 104.806L55.9366 100.644C57.7592 98.2369 57.2857 94.8083 54.879 92.9854C52.472 91.1629 49.0434 91.6363 47.2208 94.043Z" fill="#F29F5C"/>
<path d="M57.0804 99.1334L52.7847 104.806C50.9621 107.213 51.4355 110.641 53.8423 112.464C56.249 114.287 59.6776 113.813 61.5004 111.406L65.7962 105.734C67.6188 103.327 67.1453 99.8986 64.7386 98.0758C62.3319 96.2529 58.9033 96.7267 57.0804 99.1334Z" fill="#F29F5C"/>
<path d="M66.0445 105.404L61.4994 111.406C59.6768 113.813 60.1502 117.241 62.557 119.064C64.9637 120.887 68.3923 120.413 70.2151 118.006L74.7602 112.005C76.5828 109.598 76.1094 106.17 73.7026 104.347C71.2956 102.524 67.867 102.998 66.0445 105.404ZM111.588 42.8998L97.745 35.1095C96.2684 34.2786 94.5738 33.9171 92.8867 34.073L71.0296 36.0945C69.7053 36.2169 68.4296 36.6543 67.3087 37.3701C66.1879 38.0858 65.2545 39.0593 64.5864 40.2092L49.1809 66.7251C48.0433 68.6833 48.9363 71.194 51.0548 71.9941L51.6849 72.232C57.3319 74.3648 63.7092 72.5499 67.3868 67.7637L73.2893 60.0821C73.2893 60.0821 87.4774 76.5096 103.098 57.3252" fill="#F29F5C"/>
<path d="M149.983 90.5694L142.743 31.7558C142.708 31.4695 142.617 31.1928 142.474 30.9417C142.332 30.6906 142.142 30.47 141.915 30.2924C141.687 30.1149 141.427 29.9838 141.149 29.9068C140.871 29.8298 140.58 29.8084 140.294 29.8436L123.364 31.9278C118.967 32.4692 115.83 36.487 116.371 40.8838L122.185 88.1102C122.685 92.1757 126.157 95.1637 130.154 95.1637C130.479 95.1637 130.81 95.1438 131.141 95.1031L148.071 93.0189C148.649 92.9475 149.176 92.6494 149.534 92.19C149.893 91.7307 150.054 91.1478 149.983 90.5694Z" fill="#5C9CEE"/>
<path d="M149.983 90.569L149.188 84.1132C149.004 84.3845 148.764 84.6133 148.485 84.7843C148.205 84.9552 147.892 85.0643 147.567 85.1043L129.82 87.289C129.477 87.3313 129.131 87.3525 128.785 87.3525C125.797 87.3525 123.089 85.7582 121.592 83.2979L122.184 88.1096C122.685 92.1751 126.157 95.163 130.153 95.163C130.479 95.163 130.809 95.1431 131.14 95.1024L148.07 93.0182C148.357 92.983 148.633 92.8917 148.884 92.7495C149.135 92.6074 149.356 92.4172 149.534 92.1897C149.711 91.9623 149.842 91.7021 149.919 91.424C149.996 91.1459 150.018 90.8554 149.983 90.569Z" fill="#3580D3"/>
<path d="M26.6358 31.9274L9.70578 29.8432C9.41939 29.8079 9.12884 29.8293 8.85073 29.9062C8.57262 29.9832 8.3124 30.1142 8.08495 30.2918C7.85749 30.4694 7.66726 30.6901 7.52513 30.9412C7.38299 31.1923 7.29174 31.469 7.25658 31.7554L0.0164665 90.5693C-0.0547223 91.1476 0.106743 91.7306 0.465346 92.1899C0.823949 92.6492 1.35032 92.9472 1.92867 93.0185L18.8587 95.1026C19.1903 95.1434 19.5199 95.1633 19.846 95.1633C23.8421 95.1633 27.3143 92.175 27.8147 88.1098L33.6283 40.8834C34.1698 36.4866 31.0329 32.4688 26.6358 31.9274Z" fill="#ED5575"/>
<path d="M0.016454 90.569L0.811275 84.1132C0.995024 84.3845 1.23473 84.6133 1.51428 84.7843C1.79383 84.9552 2.10674 85.0643 2.43197 85.1043L20.1791 87.289C20.5265 87.3317 20.8725 87.3525 21.2141 87.3525C24.2024 87.3525 26.9097 85.7582 28.4074 83.2979L27.815 88.1096C27.3146 92.1751 23.8426 95.163 19.8463 95.163C19.5205 95.163 19.1903 95.1431 18.859 95.1024L1.92895 93.0182C1.64255 92.983 1.3659 92.8917 1.11479 92.7495C0.863681 92.6074 0.643031 92.4172 0.465439 92.1897C0.287846 91.9623 0.15679 91.7021 0.0797529 91.424C0.00271594 91.1459 -0.0187931 90.8554 0.016454 90.569Z" fill="#CC3A60"/>
<path d="M135.937 85.3997C138.283 85.3997 140.184 83.498 140.184 81.1522C140.184 78.8064 138.283 76.9048 135.937 76.9048C133.591 76.9048 131.689 78.8064 131.689 81.1522C131.689 83.498 133.591 85.3997 135.937 85.3997Z" fill="#EBEEF2"/>
<path d="M13.8256 85.3997C16.1714 85.3997 18.073 83.498 18.073 81.1522C18.073 78.8064 16.1714 76.9048 13.8256 76.9048C11.4798 76.9048 9.57812 78.8064 9.57812 81.1522C9.57812 83.498 11.4798 85.3997 13.8256 85.3997Z" fill="#EBEEF2"/>
</svg>
