<svg width="150" height="150" viewBox="0 0 150 150" fill="none" xmlns="http://www.w3.org/2000/svg">
<g clip-path="url(#clip0_794_7158)">
<path d="M81.2339 103.148L64.1494 134.403C63.6374 135.34 62.8827 136.121 61.9646 136.666C61.0464 137.21 59.9986 137.498 58.9311 137.498C55.0085 137.498 52.1603 133.767 53.1941 129.983L61.4409 99.8027L81.2339 103.148Z" fill="#F37C7C"/>
<path d="M62.1164 102.423C63.7444 113.262 55.3937 122.583 44.8658 122.583H41.7867C28.3169 122.583 16.9228 111.166 19.1537 97.9551L62.1164 102.423Z" fill="#E94444"/>
<path d="M44.8661 116.447H41.787C39.911 116.445 38.0475 116.141 36.2683 115.547C35.7243 115.356 35.2772 114.958 35.0233 114.441C34.7695 113.923 34.7292 113.326 34.9112 112.779C35.0932 112.232 35.4829 111.779 35.9962 111.516C36.5096 111.254 37.1055 111.204 37.6555 111.377C38.9874 111.823 40.3824 112.051 41.787 112.053H44.8661C47.124 112.053 49.2477 110.942 50.547 109.081C51.8689 107.188 52.1443 104.786 51.3026 102.493C51.1055 101.947 51.1326 101.345 51.378 100.819C51.6234 100.293 52.0672 99.885 52.6122 99.6849C53.1573 99.4848 53.7594 99.5086 54.287 99.7511C54.8146 99.9936 55.2248 100.435 55.4279 100.979C56.7714 104.639 56.3059 108.509 54.1503 111.597C52.0297 114.634 48.5589 116.447 44.8661 116.447Z" fill="#D83131"/>
<path d="M99.0853 105.129H27.8109C20.1231 105.129 13.1637 102.009 8.12959 96.9667C4.42764 93.2586 4.42031 87.2554 8.12549 83.5505L10.5873 81.0887L10.1227 81.5533C6.41455 85.2614 0.0225586 82.6842 0.000292969 77.4403L0 77.3176C0 59.5426 7.15518 43.439 18.7421 31.7296C21.0627 29.3847 24.8396 29.353 27.1726 31.6856L27.9806 32.4937C25.3354 29.8484 25.7701 25.4437 28.8817 23.3671L28.8814 23.3668C39.1658 16.5043 51.5229 12.5029 64.8149 12.5029H69.0712C72.3457 12.5029 75.0003 15.1575 75.0003 18.4317C75.0003 15.1572 77.6549 12.5029 80.9291 12.5029H94.171C104.036 12.5029 113.48 15.0002 121.781 19.4952C125.251 21.3743 125.9 26.0882 123.11 28.879L124.585 27.4045C126.807 25.182 130.376 25.0818 132.725 27.1704C139.597 33.2814 145.008 41.0861 148.441 50.0369C154.336 65.6697 142.784 82.3733 126.076 82.3733H120.005C119.815 82.3733 119.667 82.5362 119.684 82.7261C119.733 83.3105 119.759 83.9021 119.759 84.4994C119.759 95.907 110.499 105.152 99.0853 105.129Z" fill="#F9B1B1"/>
<path d="M111.037 22.8426L112.511 21.3681C114.734 19.1456 118.303 19.0454 120.651 21.134C122.111 22.4327 123.504 23.8055 124.823 25.247C125.037 22.9979 123.971 20.6813 121.78 19.4948C118.56 17.7507 115.182 16.3157 111.691 15.209C113.292 17.4643 113.165 20.7133 111.037 22.8426ZM148.44 50.0368C145.007 41.0855 139.595 33.2811 132.724 27.1697C130.79 25.45 128.028 25.2147 125.873 26.4262C130.293 31.5297 133.858 37.4588 136.367 44.0005C142.263 59.6333 130.711 76.3369 114.003 76.3369H109.763C109.212 76.3369 108.684 76.5558 108.294 76.9454C107.905 77.335 107.686 77.8634 107.686 78.4144V78.463C107.686 89.8709 98.426 99.1161 87.0122 99.0924H15.7379C13.7131 99.0936 11.6942 98.8744 9.7168 98.4388C14.5804 102.609 20.9012 105.129 27.8103 105.129H99.0846C110.498 105.152 119.758 95.9072 119.758 84.4993C119.758 83.902 119.733 83.3105 119.683 82.726C119.679 82.6813 119.684 82.6362 119.698 82.5936C119.713 82.5511 119.736 82.5119 119.766 82.4788C119.796 82.4456 119.833 82.419 119.874 82.4009C119.915 82.3827 119.959 82.3733 120.004 82.3732H126.075C142.783 82.3729 154.336 65.6693 148.44 50.0368Z" fill="#F79595"/>
<path d="M22.3649 29.9859L35.2125 42.8335C35.6245 43.2455 36.1834 43.477 36.7661 43.477C37.3488 43.477 37.9076 43.2455 38.3197 42.8335C38.7317 42.4214 38.9632 41.8626 38.9632 41.2799C38.9632 40.6972 38.7317 40.1383 38.3197 39.7263L26.2755 27.6817C26.0973 29.3839 26.6481 31.1619 27.98 32.4937L27.172 31.6857C25.8556 30.3694 24.0797 29.806 22.3649 29.9859ZM85.3002 94.0122C85.8829 94.0122 86.4418 93.7807 86.8539 93.3686C87.2659 92.9566 87.4974 92.3977 87.4974 91.8149C87.4974 91.2322 87.2659 90.6733 86.8539 90.2612C86.4418 89.8492 85.8829 89.6177 85.3002 89.6177H57.147C48.6975 89.6177 40.7537 92.908 34.7792 98.8828L28.5334 105.129H34.7481L37.8864 101.99C43.0309 96.8455 49.8712 94.0122 57.1468 94.0122H85.3002ZM62.0203 27.0762L61.214 22.9254C61.0978 22.3584 60.7625 21.8601 60.281 21.5389C59.7995 21.2177 59.2108 21.0994 58.6426 21.2098C58.0744 21.3201 57.5727 21.6502 57.2465 22.1283C56.9203 22.6065 56.7959 23.194 56.9004 23.7633L57.7066 27.9141C58.1493 30.1922 56.8579 32.4677 54.7031 33.2071C52.9353 33.8143 51.213 34.5465 49.5492 35.3982L45.0873 26.3001C44.8304 25.7774 44.3765 25.378 43.8253 25.1898C43.2742 25.0016 42.6708 25.0399 42.1479 25.2963C41.6249 25.5527 41.2252 26.0063 41.0365 26.5573C40.8478 27.1083 40.8856 27.7117 41.1416 28.2349L49.9119 46.1191C50.0389 46.3782 50.2157 46.6098 50.4322 46.8005C50.6487 46.9913 50.9007 47.1375 51.1738 47.2309C51.4468 47.3242 51.7356 47.3628 52.0235 47.3446C52.3115 47.3263 52.5931 47.2514 52.8521 47.1243C53.3754 46.8677 53.7752 46.4138 53.9638 45.8624C54.1524 45.311 54.1142 44.7073 53.8576 44.1841L51.4843 39.3439C52.983 38.5727 54.5355 37.9107 56.1296 37.3632C60.346 35.9168 62.8784 31.4938 62.0203 27.0762ZM20.7193 71.2503C17.0701 67.6011 16.4399 61.7968 19.2202 57.4494L20.9862 54.6879C21.295 54.197 21.3972 53.604 21.2706 53.0381C21.1439 52.4723 20.7987 51.9794 20.3102 51.6669C19.8217 51.3545 19.2295 51.2478 18.6627 51.3701C18.0959 51.4925 17.6004 51.834 17.2843 52.3201L15.5182 55.0816C11.6346 61.154 12.5153 69.2607 17.6121 74.3578L21.6911 78.4368C22.12 78.8657 22.6825 79.0805 23.2447 79.0805C23.8069 79.0805 24.3694 78.866 24.7983 78.4368C25.2103 78.0247 25.4418 77.4659 25.4418 76.8832C25.4418 76.3005 25.2103 75.7416 24.7983 75.3296L20.7193 71.2503ZM124.063 82.3731C123.647 77.9168 121.948 73.6673 119.086 70.1358C115.644 65.8884 110.887 63.0712 105.632 62.0742L108.589 53.204C108.773 52.6511 108.73 52.0477 108.47 51.5265C108.209 51.0052 107.752 50.6089 107.199 50.4246C106.646 50.2403 106.043 50.2832 105.522 50.5439C105.001 50.8045 104.604 51.2616 104.42 51.8144L101.134 61.672H88.5366L91.9605 48.912C92.0353 48.6333 92.0545 48.3426 92.0169 48.0565C91.9794 47.7704 91.8858 47.4945 91.7417 47.2445C91.5975 46.9946 91.4054 46.7755 91.1766 46.5997C90.9477 46.424 90.6865 46.295 90.4078 46.2202C90.1291 46.1454 89.8384 46.1263 89.5523 46.1638C89.2662 46.2014 88.9903 46.2949 88.7403 46.4391C88.4904 46.5833 88.2712 46.7753 88.0955 47.0041C87.9197 47.233 87.7908 47.4942 87.716 47.7729L83.9862 61.6717H70.691L66.9612 47.7729C66.8039 47.2171 66.4341 46.7455 65.9318 46.4603C65.4295 46.175 64.835 46.099 64.2771 46.2488C63.7191 46.3985 63.2426 46.7619 62.9506 47.2603C62.6586 47.7587 62.5745 48.3521 62.7167 48.912L66.1406 61.672H55.0922C54.5094 61.672 53.9505 61.9035 53.5385 62.3155C53.1264 62.7276 52.8949 63.2865 52.8949 63.8692C52.8949 64.452 53.1264 65.0109 53.5385 65.4229C53.9505 65.835 54.5094 66.0665 55.0922 66.0665H101.343C106.928 66.0665 112.15 68.5582 115.671 72.9026C118.014 75.7936 119.391 79.2873 119.7 82.9523C119.695 82.8767 119.689 82.8011 119.682 82.7256C119.678 82.6809 119.683 82.6358 119.698 82.5932C119.712 82.5507 119.735 82.5115 119.765 82.4784C119.795 82.4452 119.832 82.4186 119.873 82.4005C119.914 82.3823 119.959 82.3729 120.003 82.3728L124.063 82.3731Z" fill="#F79595"/>
<path d="M105.28 81.3543C104.266 80.3393 103.135 79.4494 101.91 78.7038L105.718 74.8955C106.13 74.4835 106.361 73.9246 106.361 73.3419C106.361 72.7592 106.13 72.2003 105.718 71.7883C105.306 71.3763 104.747 71.1448 104.164 71.1448C103.582 71.1448 103.023 71.3763 102.611 71.7883L97.584 76.815C95.9885 76.3623 94.3379 76.1334 92.6794 76.1351H54.0667C47.8537 76.1351 42.0125 73.7157 37.6195 69.3224L30.6128 62.3157C30.2008 61.9037 29.6419 61.6722 29.0592 61.6722C28.4765 61.6722 27.9176 61.9037 27.5056 62.3157C27.0936 62.7278 26.8621 63.2866 26.8621 63.8693C26.8621 64.452 27.0936 65.0109 27.5056 65.423L34.5122 72.4296C39.7356 77.6529 46.6801 80.5293 54.067 80.5293H92.6797C94.2541 80.5293 95.7869 80.7985 97.226 81.315C97.3408 81.3698 97.4595 81.4144 97.5805 81.448C99.2815 82.114 100.842 83.1309 102.173 84.4612L102.942 85.2303C103.371 85.6592 103.934 85.8739 104.496 85.8739C105.058 85.8739 105.62 85.6595 106.049 85.2303C106.461 84.8182 106.693 84.2594 106.693 83.6767C106.693 83.094 106.461 82.5351 106.049 82.123L105.28 81.3543ZM119.582 87.1996C119.519 87.6536 119.44 88.1052 119.345 88.5537C119.327 88.639 119.314 88.7253 119.306 88.8121C119.419 88.2818 119.511 87.7439 119.582 87.1996ZM35.9466 50.9559C35.5346 51.3679 35.3031 51.9268 35.3031 52.5095C35.3031 53.0922 35.5346 53.651 35.9466 54.0631L44.2795 62.396C44.7084 62.8249 45.2709 63.0396 45.8331 63.0396C46.3953 63.0396 46.9578 62.8252 47.3867 62.396C47.7988 61.9839 48.0302 61.4251 48.0302 60.8424C48.0302 60.2597 47.7988 59.7008 47.3867 59.2888L39.0538 50.9559C38.6418 50.5438 38.0829 50.3124 37.5002 50.3124C36.9175 50.3124 36.3587 50.5438 35.9466 50.9559ZM127.89 72.4955C125.854 67.6185 122.732 63.5649 118.901 60.4155C117.997 59.6726 117.467 58.6111 117.409 57.4267C117.381 56.8307 117.477 56.2353 117.692 55.6786C117.906 55.1219 118.235 54.6161 118.656 54.1938L122.587 50.263C122.999 49.8509 123.231 49.2921 123.231 48.7094C123.231 48.1267 122.999 47.5678 122.587 47.1558C122.175 46.7437 121.616 46.5123 121.034 46.5123C120.451 46.5123 119.892 46.7437 119.48 47.1558L115.549 51.0865C114.694 51.9427 114.028 52.968 113.592 54.0967C113.157 55.2254 112.962 56.4327 113.02 57.6411C113.137 60.0443 114.264 62.2929 116.111 63.8107C119.508 66.6033 122.137 70.1227 123.834 74.1886C124.001 74.5888 124.283 74.9307 124.644 75.1712C125.005 75.4117 125.429 75.54 125.863 75.54C126.225 75.5399 126.581 75.4504 126.9 75.2795C127.219 75.1086 127.491 74.8616 127.691 74.5604C127.892 74.2591 128.015 73.9131 128.05 73.5528C128.084 73.1926 128.029 72.8294 127.89 72.4955ZM15.1142 92.6207C14.7022 93.0328 14.4707 93.5916 14.4707 94.1743C14.4707 94.757 14.7022 95.3159 15.1142 95.7279C15.5262 96.1399 16.0851 96.3714 16.6678 96.3714C17.2505 96.3714 17.8093 96.1399 18.2214 95.7279L20.7093 93.24C24.0635 89.8858 28.5234 88.0387 33.2668 88.0387H37.5002C38.083 88.0387 38.6418 87.8072 39.0539 87.3951C39.466 86.983 39.6975 86.4242 39.6975 85.8414C39.6975 85.2587 39.466 84.6998 39.0539 84.2877C38.6418 83.8756 38.083 83.6441 37.5002 83.6441H33.2668C27.3494 83.6441 21.786 85.9486 17.6018 90.1328L15.1142 92.6207ZM114.175 37.813C114.603 38.2419 115.166 38.4566 115.728 38.4566C116.29 38.4566 116.853 38.2422 117.282 37.813L129.395 25.7002C127.673 25.5209 125.894 26.0934 124.583 27.4041L123.109 28.8786C124.446 27.5403 124.993 25.7603 124.817 24.0625L114.175 34.7058C113.763 35.1178 113.531 35.6767 113.531 36.2594C113.531 36.8421 113.763 37.4009 114.175 37.813ZM149.998 58.6012L132.899 62.021C132.616 62.0776 132.347 62.1894 132.107 62.3499C131.867 62.5105 131.661 62.7167 131.501 62.9568C131.341 63.1969 131.23 63.4662 131.174 63.7492C131.118 64.0323 131.118 64.3236 131.175 64.6066C131.232 64.8895 131.343 65.1586 131.504 65.3983C131.665 65.6381 131.871 65.8439 132.111 66.0039C132.351 66.164 132.62 66.2752 132.903 66.3312C133.186 66.3872 133.478 66.3869 133.761 66.3303L149.528 63.1768C149.834 61.6706 149.991 60.1381 149.998 58.6012Z" fill="#F79595"/>
<path d="M134.885 43.7809C135.297 43.3688 135.528 42.81 135.528 42.2272C135.528 41.6445 135.297 41.0857 134.885 40.6736C134.681 40.4696 134.438 40.3077 134.172 40.1972C133.905 40.0868 133.62 40.0299 133.331 40.0299C133.042 40.0299 132.757 40.0868 132.49 40.1972C132.224 40.3077 131.981 40.4696 131.777 40.6736L129.443 43.008C127.527 44.924 126.991 47.8496 128.108 50.2883C128.497 51.1365 128.859 51.9966 129.193 52.8676C129.356 53.2982 129.5 53.7354 129.626 54.178L126.328 54.8378C126.045 54.8944 125.776 55.0062 125.536 55.1667C125.296 55.3273 125.091 55.5335 124.931 55.7736C124.77 56.0137 124.659 56.283 124.603 56.566C124.547 56.8491 124.548 57.1404 124.604 57.4234C124.661 57.7063 124.773 57.9754 124.933 58.2151C125.094 58.4549 125.3 58.6607 125.54 58.8207C125.78 58.9808 126.049 59.092 126.332 59.148C126.615 59.204 126.907 59.2037 127.19 59.1471L132.681 58.049H132.681L142.095 56.1661C142.667 56.0519 143.169 55.7153 143.492 55.2304C143.816 54.7455 143.933 54.1521 143.819 53.5807C143.705 53.0092 143.368 52.5066 142.883 52.1833C142.398 51.86 141.805 51.7426 141.233 51.8568L133.947 53.3141C133.765 52.6341 133.549 51.9636 133.301 51.3052C132.932 50.3434 132.533 49.3936 132.104 48.4572C131.748 47.68 131.927 46.739 132.551 46.1152L134.885 43.7809ZM77.1973 13.8242C75.8569 14.9111 75 16.5714 75 18.4317C75 16.5714 74.1431 14.9114 72.8027 13.8242V27.5105C72.8027 28.0933 73.0342 28.6522 73.4463 29.0642C73.8584 29.4763 74.4172 29.7078 75 29.7078C75.5828 29.7078 76.1416 29.4763 76.5537 29.0642C76.9658 28.6522 77.1973 28.0933 77.1973 27.5105V13.8242ZM75 33.6465C74.4172 33.6465 73.8584 33.878 73.4463 34.2901C73.0342 34.7021 72.8027 35.261 72.8027 35.8438V48.3433C72.8027 48.926 73.0342 49.4849 73.4463 49.897C73.8584 50.309 74.4172 50.5405 75 50.5405C75.5828 50.5405 76.1416 50.309 76.5537 49.897C76.9658 49.4849 77.1973 48.926 77.1973 48.3433V35.8438C77.1973 35.261 76.9658 34.7021 76.5537 34.2901C76.1416 33.878 75.5828 33.6465 75 33.6465ZM93.6902 21.8152C93.7944 21.2418 93.6665 20.6506 93.3347 20.1715C93.0029 19.6924 92.4944 19.3647 91.921 19.2605C91.3476 19.1564 90.7563 19.2843 90.2772 19.6161C89.7981 19.9479 89.4705 20.4564 89.3663 21.0298L88.6822 24.7944C87.847 29.3911 90.5856 33.8302 95.0522 35.1201C96.6651 35.5865 98.2385 36.1797 99.7579 36.894L98.2321 40.1378C98.1076 40.3991 98.036 40.6824 98.0213 40.9715C98.0067 41.2606 98.0492 41.5498 98.1467 41.8223C98.2441 42.0949 98.3944 42.3455 98.589 42.5599C98.7835 42.7742 99.0185 42.9479 99.2804 43.0711C99.5424 43.1943 99.8261 43.2646 100.115 43.2778C100.404 43.2911 100.693 43.2471 100.965 43.1483C101.237 43.0496 101.487 42.898 101.701 42.7024C101.914 42.5068 102.087 42.2709 102.209 42.0084L110.045 25.349C110.169 25.0877 110.241 24.8044 110.255 24.5153C110.27 24.2262 110.228 23.9371 110.13 23.6645C110.033 23.3919 109.882 23.1413 109.688 22.927C109.493 22.7126 109.258 22.5389 108.996 22.4157C108.734 22.2925 108.451 22.2222 108.162 22.209C107.872 22.1957 107.583 22.2397 107.311 22.3385C107.039 22.4373 106.789 22.5888 106.576 22.7844C106.363 22.98 106.19 23.2159 106.068 23.4784L101.628 32.9176C99.8988 32.1041 98.1076 31.4289 96.2716 30.8981C93.9794 30.2363 92.5755 27.95 93.0062 25.5802L93.6902 21.8152Z" fill="#F79595"/>
<path d="M135.496 41.8489C135.436 41.5004 135.292 41.1718 135.076 40.8912C135.219 41.2088 135.359 41.5281 135.496 41.8489ZM125.874 26.4259C126.308 26.9262 126.732 27.4338 127.148 27.9487L129.397 25.6999C128.176 25.5721 126.945 25.8257 125.874 26.4259ZM124.825 25.247C124.862 24.8529 124.86 24.4562 124.82 24.0625L124.252 24.6303C124.444 24.8345 124.635 25.0398 124.825 25.247ZM143.82 53.5803C143.705 53.0089 143.369 52.5063 142.884 52.183C142.399 51.8597 141.806 51.7423 141.234 51.8564L137.928 52.5177C137.924 54.0536 137.77 55.5854 137.468 57.0912L142.096 56.1657C142.379 56.1091 142.648 55.9974 142.887 55.8368C143.127 55.6763 143.333 55.4701 143.493 55.23C143.653 54.9899 143.764 54.7207 143.82 54.4376C143.876 54.1545 143.876 53.8632 143.82 53.5803ZM150.001 58.6012L136.184 61.3645C135.465 63.1366 134.538 64.8173 133.423 66.3713C133.537 66.3665 133.651 66.3528 133.763 66.3303L149.53 63.1768C149.836 61.6706 149.994 60.1381 150.001 58.6012ZM119.585 87.1999C119.521 87.6538 119.442 88.1054 119.347 88.5537C119.329 88.639 119.316 88.7253 119.308 88.8121C119.421 88.2818 119.513 87.7442 119.585 87.1999ZM127.892 72.4955C127.829 72.3443 127.765 72.1938 127.7 72.044C126.49 72.8936 125.204 73.6276 123.857 74.2363C124.03 74.6244 124.312 74.954 124.668 75.1853C125.024 75.4166 125.44 75.5397 125.865 75.5397C126.147 75.5397 126.434 75.485 126.71 75.3695C126.977 75.2584 127.219 75.0959 127.422 74.8913C127.626 74.6868 127.787 74.4441 127.896 74.1772C128.006 73.9103 128.062 73.6245 128.061 73.3359C128.061 73.0474 128.003 72.7618 127.892 72.4955ZM37.8882 101.99C38.944 100.933 40.0839 99.9641 41.2966 99.0921H34.5712L28.5352 105.128H34.7499L37.8882 101.99ZM124.064 82.3729C123.827 79.8056 123.156 77.297 122.081 74.9535C120.669 75.4573 119.211 75.8256 117.729 76.0536C118.831 78.1967 119.499 80.5375 119.702 82.9527C119.697 82.8771 119.691 82.8015 119.684 82.726C119.68 82.6813 119.685 82.6362 119.7 82.5936C119.714 82.5511 119.737 82.5119 119.767 82.4788C119.797 82.4456 119.834 82.419 119.875 82.4009C119.916 82.3827 119.961 82.3733 120.006 82.3732H124.064V82.3729Z" fill="#F37C7C"/>
</g>
<defs>
<clipPath id="clip0_794_7158">
<rect width="150" height="150" fill="white"/>
</clipPath>
</defs>
</svg>
