<svg width="31" height="20" viewBox="0 0 31 20" fill="none" xmlns="http://www.w3.org/2000/svg">
<path d="M6.68 0.540039C3 0.540039 0 3.57004 0 7.29004C0 9.82004 1.37 12.09 3.54 13.25C3.43 14.43 2.94 16.94 0.93 17.49C0.45 17.62 0.14 18.08 0.2 18.57C0.26 19.06 0.66 19.44 1.16 19.45H1.31C2.29 19.45 7.67 19.23 11.15 14.56C13.41 11.53 14.08 8.24004 13.05 5.34004C12.19 2.47004 9.63 0.540039 6.68 0.540039ZM29.54 5.35004C28.68 2.48004 26.12 0.550039 23.17 0.550039C19.49 0.550039 16.49 3.58004 16.49 7.30004C16.49 9.83004 17.86 12.1 20.03 13.26C19.92 14.44 19.43 16.95 17.42 17.5C16.94 17.63 16.63 18.09 16.69 18.58C16.75 19.07 17.15 19.45 17.65 19.46H17.8C18.78 19.46 24.16 19.24 27.64 14.57C29.9 11.54 30.57 8.25004 29.54 5.35004Z" fill="#F28211"/>
</svg>
