<svg width="153" height="53" viewBox="0 0 153 53" fill="none" xmlns="http://www.w3.org/2000/svg">
<rect y="0.800049" width="152.4" height="51.6" rx="7.2" fill="#2D2D2D"/>
<path d="M26.1661 25.954L14.5078 38.6071C14.5089 38.6093 14.5089 38.6127 14.51 38.6149C14.8681 39.9889 16.0944 41 17.5508 41C18.1333 41 18.6797 40.8388 19.1483 40.5566L19.1856 40.5342L32.3078 32.7912L26.1661 25.954Z" fill="#EA4335"/>
<path d="M37.9594 23.7994L37.9485 23.7915L32.283 20.4334L25.9004 26.2415L32.306 32.7898L37.9408 29.4653C38.9285 28.9188 39.5997 27.854 39.5997 26.6267C39.5997 25.4062 38.9383 24.3469 37.9594 23.7994Z" fill="#FBBC04"/>
<path d="M14.5077 14.592C14.4376 14.8563 14.4004 15.134 14.4004 15.4207V37.7797C14.4004 38.0663 14.4376 38.344 14.5088 38.6072L26.5667 26.2777L14.5077 14.592Z" fill="#4285F4"/>
<path d="M26.2526 26.5999L32.2859 20.4312L19.179 12.6602C18.7027 12.3679 18.1464 12.2 17.5519 12.2C16.0955 12.2 14.867 13.2133 14.5089 14.5884C14.5089 14.5895 14.5078 14.5906 14.5078 14.5917L26.2526 26.5999Z" fill="#34A853"/>
<path d="M55.7383 16.6844C55.7383 18.3532 54.5945 19.4594 52.8648 19.4594C50.9945 19.4594 49.7992 18.0813 49.7992 15.9157C49.7992 13.7782 51.0133 12.3766 52.8648 12.3766C54.3648 12.3766 55.4523 13.211 55.6961 14.5516H54.8383C54.5477 13.6375 53.868 13.1547 52.8648 13.1547C51.5242 13.1547 50.6664 14.2329 50.6664 15.9157C50.6664 17.6219 51.5102 18.6813 52.8695 18.6813C54.0789 18.6813 54.8992 17.9079 54.8992 16.7641V16.6H52.9961V15.8594H55.7383V16.6844ZM61.4242 18.5407V19.3H57.2336V12.536H61.4242V13.2954H58.0773V15.4657H61.2508V16.2157H58.0773V18.5407H61.4242ZM65.5539 19.3H64.7102V13.2954H62.5305V12.536H67.7336V13.2954H65.5539V19.3ZM72.5898 19.3H71.7461V12.536H72.5898V19.3ZM76.9164 19.3H76.0727V13.2954H73.893V12.536H79.0961V13.2954H76.9164V19.3ZM85.9539 12.3766C87.8758 12.3766 89.0477 13.7454 89.0477 15.9157C89.0477 18.0766 87.8852 19.4594 85.9539 19.4594C84.0133 19.4594 82.8461 18.0813 82.8461 15.9157C82.8461 13.7407 84.0414 12.3766 85.9539 12.3766ZM85.9539 13.1547C84.5758 13.1547 83.7133 14.2235 83.7133 15.9157C83.7133 17.5938 84.5477 18.6813 85.9539 18.6813C87.3414 18.6813 88.1805 17.5938 88.1805 15.9157C88.1805 14.2235 87.3367 13.1547 85.9539 13.1547ZM91.3492 19.3H90.5148V12.536H91.3352L95.0055 17.8H95.0805V12.536H95.9148V19.3H95.0945L91.4242 14.0547H91.3492V19.3Z" fill="white"/>
<path d="M118.221 38.5917H120.176V25.3779H118.221V38.5917ZM135.826 30.1377L133.585 35.8667H133.518L131.193 30.1377H129.087L132.574 38.1446L130.587 42.5989H132.625L137.999 30.1377H135.826ZM124.741 37.0908C124.1 37.0908 123.208 36.7684 123.208 35.9682C123.208 34.9492 124.319 34.5581 125.28 34.5581C126.139 34.5581 126.544 34.7452 127.066 35C126.914 36.224 125.87 37.0908 124.741 37.0908ZM124.977 29.8491C123.562 29.8491 122.096 30.478 121.49 31.8723L123.225 32.6027C123.596 31.8723 124.286 31.6334 125.011 31.6334C126.021 31.6334 127.049 32.2454 127.066 33.3341V33.4694C126.712 33.2654 125.954 32.9599 125.027 32.9599C123.158 32.9599 121.253 33.9969 121.253 35.9344C121.253 37.7028 122.787 38.8422 124.505 38.8422C125.819 38.8422 126.544 38.2471 126.999 37.5495H127.066V38.5695H128.952V33.5032C128.952 31.1577 127.218 29.8491 124.977 29.8491ZM112.898 31.7465H110.118V27.2171H112.898C114.359 27.2171 115.189 28.438 115.189 29.4813C115.189 30.5055 114.359 31.7465 112.898 31.7465ZM112.847 25.3779H108.164V38.5917H110.118V33.5857H112.847C115.014 33.5857 117.143 32.0023 117.143 29.4813C117.143 26.9603 115.014 25.3779 112.847 25.3779ZM87.3092 37.0929C85.959 37.0929 84.8288 35.9524 84.8288 34.3858C84.8288 32.8024 85.959 31.6439 87.3092 31.6439C88.6426 31.6439 89.688 32.8024 89.688 34.3858C89.688 35.9524 88.6426 37.0929 87.3092 37.0929ZM89.5539 30.8776H89.4858C89.0469 30.3501 88.2037 29.8734 87.1405 29.8734C84.9126 29.8734 82.8711 31.8479 82.8711 34.3858C82.8711 36.9058 84.9126 38.8644 87.1405 38.8644C88.2037 38.8644 89.0469 38.3877 89.4858 37.8423H89.5539V38.4903C89.5539 40.21 88.6426 41.1296 87.1741 41.1296C85.9758 41.1296 85.2331 40.2608 84.9293 39.5283L83.2251 40.2439C83.7143 41.4362 85.0142 42.9001 87.1741 42.9001C89.4691 42.9001 91.41 41.5376 91.41 38.2175V30.1451H89.5539V30.8776ZM92.7602 38.5917H94.7179V25.3769H92.7602V38.5917ZM97.6026 34.2326C97.5524 32.4959 98.9361 31.6101 99.9312 31.6101C100.708 31.6101 101.366 32.0012 101.585 32.5635L97.6026 34.2326ZM103.678 32.7337C103.307 31.7296 102.176 29.8734 99.8641 29.8734C97.5691 29.8734 95.6627 31.6947 95.6627 34.3689C95.6627 36.8889 97.5524 38.8644 100.083 38.8644C102.126 38.8644 103.307 37.6045 103.796 36.872L102.277 35.8498C101.772 36.5992 101.079 37.0929 100.083 37.0929C99.088 37.0929 98.3788 36.6331 97.9232 35.7314L103.88 33.2443L103.678 32.7337ZM56.2193 31.2528V33.1597H60.7413C60.6061 34.2326 60.2521 35.0158 59.7126 35.5602C59.0538 36.2251 58.0241 36.9576 56.2193 36.9576C53.4341 36.9576 51.2575 34.6924 51.2575 31.8828C51.2575 29.0722 53.4341 26.8081 56.2193 26.8081C57.7214 26.8081 58.8181 27.4042 59.6278 28.1706L60.9612 26.825C59.83 25.7352 58.3289 24.9001 56.2193 24.9001C52.4055 24.9001 49.1992 28.0342 49.1992 31.8828C49.1992 35.7314 52.4055 38.8644 56.2193 38.8644C58.2776 38.8644 59.83 38.1827 61.045 36.9058C62.2946 35.6458 62.6822 33.8753 62.6822 32.4441C62.6822 32.0012 62.6487 31.5932 62.5806 31.2528H56.2193ZM67.8242 37.0929C66.474 37.0929 65.3092 35.9693 65.3092 34.3689C65.3092 32.7506 66.474 31.6439 67.8242 31.6439C69.1734 31.6439 70.3381 32.7506 70.3381 34.3689C70.3381 35.9693 69.1734 37.0929 67.8242 37.0929ZM67.8242 29.8734C65.3595 29.8734 63.3515 31.7634 63.3515 34.3689C63.3515 36.9576 65.3595 38.8644 67.8242 38.8644C70.2879 38.8644 72.2959 36.9576 72.2959 34.3689C72.2959 31.7634 70.2879 29.8734 67.8242 29.8734ZM77.5793 37.0929C76.2291 37.0929 75.0643 35.9693 75.0643 34.3689C75.0643 32.7506 76.2291 31.6439 77.5793 31.6439C78.9295 31.6439 80.0932 32.7506 80.0932 34.3689C80.0932 35.9693 78.9295 37.0929 77.5793 37.0929ZM77.5793 29.8734C75.1156 29.8734 73.1076 31.7634 73.1076 34.3689C73.1076 36.9576 75.1156 38.8644 77.5793 38.8644C80.0429 38.8644 82.0509 36.9576 82.0509 34.3689C82.0509 31.7634 80.0429 29.8734 77.5793 29.8734Z" fill="white"/>
</svg>
