<svg width="24" height="24" viewBox="0 0 24 24" fill="none" xmlns="http://www.w3.org/2000/svg">
<path d="M7.97005 9.88601H16.03M7.97005 14.114H13.718M12 21.25C14.0094 21.2496 15.964 20.5948 17.5682 19.3848C19.1725 18.1748 20.339 16.4753 20.8915 14.5434C21.444 12.6115 21.3524 10.5521 20.6305 8.6769C19.9086 6.80167 18.5958 5.21249 16.8904 4.14971C15.1851 3.08694 13.1801 2.60837 11.1786 2.78638C9.17712 2.96439 7.28803 3.7893 5.79703 5.13636C4.30603 6.48341 3.29422 8.27934 2.91462 10.2525C2.53501 12.2258 2.80827 14.2689 3.69305 16.073C3.80105 16.293 3.83705 16.541 3.78205 16.779L2.96605 20.315C2.94304 20.4142 2.94568 20.5177 2.97372 20.6156C3.00175 20.7136 3.05425 20.8027 3.12628 20.8748C3.19831 20.9468 3.28749 20.9993 3.38543 21.0273C3.48336 21.0554 3.58681 21.058 3.68605 21.035L7.22105 20.218C7.45972 20.1657 7.70912 20.1975 7.92705 20.308C9.19444 20.9304 10.5881 21.2527 12 21.25Z" stroke="#F28211" stroke-width="1.5" stroke-linecap="round" stroke-linejoin="round"/>
</svg>
