<svg width="16" height="15" viewBox="0 0 16 15" fill="none" xmlns="http://www.w3.org/2000/svg">
<path d="M7.9993 11.8957L4.54096 13.979C4.38819 14.0762 4.22846 14.1179 4.0618 14.104C3.89513 14.0901 3.7493 14.0346 3.6243 13.9373C3.4993 13.8401 3.40208 13.7187 3.33263 13.5732C3.26319 13.4276 3.2493 13.2643 3.29096 13.0832L4.20763 9.14567L1.14513 6.49984C1.00624 6.37484 0.919575 6.23234 0.885131 6.07234C0.850686 5.91234 0.860964 5.75623 0.915964 5.604C0.970964 5.45178 1.0543 5.32678 1.16596 5.229C1.27763 5.13123 1.43041 5.06873 1.6243 5.0415L5.66596 4.68734L7.22846 0.979004C7.29791 0.812337 7.40569 0.687337 7.5518 0.604004C7.69791 0.52067 7.84708 0.479004 7.9993 0.479004C8.15152 0.479004 8.30069 0.52067 8.4468 0.604004C8.59291 0.687337 8.70069 0.812337 8.77013 0.979004L10.3326 4.68734L14.3743 5.0415C14.5687 5.06928 14.7215 5.13178 14.8326 5.229C14.9437 5.32623 15.0271 5.45123 15.0826 5.604C15.1382 5.75678 15.1487 5.91317 15.1143 6.07317C15.0799 6.23317 14.9929 6.37539 14.8535 6.49984L11.791 9.14567L12.7076 13.0832C12.7493 13.2637 12.7354 13.4271 12.666 13.5732C12.5965 13.7193 12.4993 13.8407 12.3743 13.9373C12.2493 14.034 12.1035 14.0896 11.9368 14.104C11.7701 14.1184 11.6104 14.0768 11.4576 13.979L7.9993 11.8957Z" fill="#FFCC00"/>
</svg>
