<svg width="157" height="53" viewBox="0 0 157 53" fill="none" xmlns="http://www.w3.org/2000/svg">
<rect x="0.400391" y="0.5" width="156" height="52.2" rx="7.2" fill="#2D2D2D"/>
<path d="M34.8462 27.5157C34.8608 26.4118 35.1611 25.3294 35.7192 24.3693C36.2774 23.4092 37.0752 22.6025 38.0385 22.0243C37.4266 21.1711 36.6193 20.4689 35.6807 19.9735C34.7422 19.4782 33.6983 19.2033 32.6319 19.1707C30.357 18.9376 28.1517 20.4996 26.9925 20.4996C25.8109 20.4996 24.0261 19.1938 22.1042 19.2324C20.861 19.2717 19.6495 19.6246 18.5876 20.2568C17.5257 20.8891 16.6497 21.7791 16.0449 22.8402C13.425 27.2687 15.3792 33.777 17.8888 37.3567C19.1445 39.1096 20.612 41.0675 22.5321 40.9981C24.4111 40.922 25.1129 39.8283 27.381 39.8283C29.6281 39.8283 30.2865 40.9981 32.2456 40.954C34.2619 40.922 35.5322 39.1933 36.7438 37.4239C37.646 36.1749 38.3402 34.7945 38.8008 33.3339C37.6294 32.8502 36.6298 32.0405 35.9265 31.0059C35.2233 29.9712 34.8475 28.7574 34.8462 27.5157Z" fill="white"/>
<path d="M31.146 16.8165C32.2454 15.5281 32.787 13.872 32.6558 12.2C30.9763 12.3722 29.4249 13.1559 28.3107 14.3949C27.7659 15.0002 27.3486 15.7043 27.0828 16.4672C26.817 17.23 26.7077 18.0365 26.7613 18.8405C27.6014 18.849 28.4325 18.6712 29.192 18.3206C29.9515 17.97 30.6196 17.4557 31.146 16.8165Z" fill="#2D2D2D"/>
<path d="M49.3707 10.2903H51.9811C54.2381 10.2903 55.5723 11.6983 55.5723 14.0925C55.5723 16.4919 54.2434 17.8999 51.9811 17.8999H49.3707V10.2903ZM50.3199 11.1446V17.0456H51.9178C53.6158 17.0456 54.602 15.9593 54.602 14.103C54.602 12.2415 53.6053 11.1446 51.9178 11.1446H50.3199ZM59.4377 18.0001C57.8188 18.0001 56.8168 16.8821 56.8168 15.0575C56.8168 13.2276 57.8188 12.1149 59.4377 12.1149C61.0566 12.1149 62.0586 13.2276 62.0586 15.0575C62.0586 16.8821 61.0566 18.0001 59.4377 18.0001ZM59.4377 17.1827C60.5135 17.1827 61.1199 16.4022 61.1199 15.0575C61.1199 13.7075 60.5135 12.9323 59.4377 12.9323C58.3619 12.9323 57.7555 13.7075 57.7555 15.0575C57.7555 16.4022 58.3619 17.1827 59.4377 17.1827ZM70.4223 12.2151L68.8297 17.8999H67.9068L66.6359 13.5019H66.5516L65.2859 17.8999H64.3684L62.7758 12.2151H63.6934L64.8113 16.7608H64.8957L66.1666 12.2151H67.0367L68.3076 16.7608H68.392L69.51 12.2151H70.4223ZM71.6352 17.8999V12.2151H72.5V13.1116H72.5844C72.8691 12.4841 73.4229 12.1149 74.293 12.1149C75.5691 12.1149 76.2811 12.869 76.2811 14.219V17.8999H75.374V14.4405C75.374 13.4175 74.9416 12.9323 74.0346 12.9323C73.1275 12.9323 72.5422 13.5388 72.5422 14.5354V17.8999H71.6352ZM77.9949 17.8999V9.95811H78.902V17.8999H77.9949ZM82.9994 18.0001C81.3805 18.0001 80.3785 16.8821 80.3785 15.0575C80.3785 13.2276 81.3805 12.1149 82.9994 12.1149C84.6184 12.1149 85.6203 13.2276 85.6203 15.0575C85.6203 16.8821 84.6184 18.0001 82.9994 18.0001ZM82.9994 17.1827C84.0752 17.1827 84.6816 16.4022 84.6816 15.0575C84.6816 13.7075 84.0752 12.9323 82.9994 12.9323C81.9236 12.9323 81.3172 13.7075 81.3172 15.0575C81.3172 16.4022 81.9236 17.1827 82.9994 17.1827ZM88.7949 17.2038C89.7283 17.2038 90.4191 16.5921 90.4191 15.78V15.2579L88.8898 15.3581C88.025 15.4161 87.6453 15.7167 87.6453 16.2862C87.6453 16.8663 88.1357 17.2038 88.7949 17.2038ZM88.6262 18.0001C87.524 18.0001 86.7066 17.3462 86.7066 16.3073C86.7066 15.2896 87.4555 14.7042 88.7791 14.6251L90.4191 14.5249V14.0081C90.4191 13.3067 89.9814 12.9218 89.1324 12.9218C88.4522 12.9218 87.9775 13.1802 87.851 13.6284H86.9334C87.0547 12.7161 87.9512 12.1149 89.1641 12.1149C90.551 12.1149 91.3262 12.8269 91.3262 14.0081V17.8999H90.4613V17.0614H90.377C90.0078 17.6679 89.3855 18.0001 88.6262 18.0001ZM95.1072 18.0001C93.6518 18.0001 92.7184 16.8452 92.7184 15.0575C92.7184 13.2751 93.6623 12.1149 95.1072 12.1149C95.8982 12.1149 96.568 12.4894 96.8897 13.1116H96.9688V9.95811H97.8758V17.8999H97.0109V16.9929H96.9266C96.568 17.6257 95.893 18.0001 95.1072 18.0001ZM95.3182 12.9323C94.2846 12.9323 93.657 13.7339 93.657 15.0575C93.657 16.3864 94.2793 17.1827 95.3182 17.1827C96.3518 17.1827 96.9898 16.3706 96.9898 15.0575C96.9898 13.755 96.3465 12.9323 95.3182 12.9323ZM105.021 18.0001C103.402 18.0001 102.4 16.8821 102.4 15.0575C102.4 13.2276 103.402 12.1149 105.021 12.1149C106.64 12.1149 107.642 13.2276 107.642 15.0575C107.642 16.8821 106.64 18.0001 105.021 18.0001ZM105.021 17.1827C106.097 17.1827 106.704 16.4022 106.704 15.0575C106.704 13.7075 106.097 12.9323 105.021 12.9323C103.946 12.9323 103.339 13.7075 103.339 15.0575C103.339 16.4022 103.946 17.1827 105.021 17.1827ZM109.066 17.8999V12.2151H109.931V13.1116H110.015C110.3 12.4841 110.854 12.1149 111.724 12.1149C113 12.1149 113.712 12.869 113.712 14.219V17.8999H112.805V14.4405C112.805 13.4175 112.372 12.9323 111.465 12.9323C110.558 12.9323 109.973 13.5388 109.973 14.5354V17.8999H109.066ZM118.801 10.7438H119.708V12.2151H120.973V12.9745H119.708V16.1913C119.708 16.861 119.961 17.1458 120.552 17.1458C120.715 17.1458 120.805 17.1405 120.973 17.1247V17.8894C120.794 17.921 120.62 17.9421 120.441 17.9421C119.27 17.9421 118.801 17.5097 118.801 16.4233V12.9745H117.883V12.2151H118.801V10.7438ZM122.397 17.8999V9.95811H123.304V13.1116H123.389C123.673 12.4841 124.269 12.1149 125.139 12.1149C126.342 12.1149 127.101 12.8849 127.101 14.219V17.8999H126.194V14.4405C126.194 13.4333 125.741 12.9323 124.881 12.9323C123.863 12.9323 123.304 13.5757 123.304 14.5354V17.8999H122.397ZM131.025 12.9165C130.118 12.9165 129.485 13.581 129.416 14.5882H132.549C132.528 13.581 131.926 12.9165 131.025 12.9165ZM132.522 16.4286H133.429C133.155 17.4042 132.28 18.0001 131.035 18.0001C129.458 18.0001 128.472 16.861 128.472 15.0628C128.472 13.2751 129.474 12.1149 131.035 12.1149C132.57 12.1149 133.503 13.2065 133.503 14.9731V15.3212H129.416V15.3634C129.464 16.4866 130.091 17.1985 131.056 17.1985C131.789 17.1985 132.285 16.9296 132.522 16.4286Z" fill="white"/>
<path d="M59.7172 41.2998L58.325 37.1865H52.5242L51.132 41.2998H48.6746L54.1695 26.0807H56.7219L62.2168 41.2998H59.7172ZM55.393 28.6119L53.1254 35.2881H57.7238L55.4563 28.6119H55.393ZM68.8352 30.0252C71.6512 30.0252 73.5075 32.24 73.5075 35.7521C73.5075 39.2643 71.6618 41.4896 68.8774 41.4896C67.2848 41.4896 66.0192 40.7092 65.3864 39.4752H65.3337V44.9701H63.0555V30.2045H65.2598V32.1135H65.302C65.9559 30.8373 67.2321 30.0252 68.8352 30.0252ZM68.234 39.5596C70.0376 39.5596 71.1661 38.083 71.1661 35.7521C71.1661 33.4318 70.0376 31.9447 68.234 31.9447C66.4938 31.9447 65.3231 33.4635 65.3231 35.7521C65.3231 38.0619 66.4833 39.5596 68.234 39.5596ZM80.4845 30.0252C83.3005 30.0252 85.1568 32.24 85.1568 35.7521C85.1568 39.2643 83.3111 41.4896 80.5267 41.4896C78.9341 41.4896 77.6685 40.7092 77.0357 39.4752H76.9829V44.9701H74.7048V30.2045H76.9091V32.1135H76.9513C77.6052 30.8373 78.8814 30.0252 80.4845 30.0252ZM79.8833 39.5596C81.6868 39.5596 82.8154 38.083 82.8154 35.7521C82.8154 33.4318 81.6868 31.9447 79.8833 31.9447C78.1431 31.9447 76.9724 33.4635 76.9724 35.7521C76.9724 38.0619 78.1325 39.5596 79.8833 39.5596ZM89.7768 37.06H92.1077C92.2764 38.5682 93.7424 39.5596 95.7463 39.5596C97.6659 39.5596 99.0475 38.5682 99.0475 37.2076C99.0475 36.0264 98.2143 35.3197 96.242 34.8346L94.2698 34.36C91.4749 33.685 90.1776 32.3771 90.1776 30.2572C90.1776 27.6311 92.4663 25.8275 95.7147 25.8275C98.9315 25.8275 101.136 27.6311 101.21 30.2572H98.9104C98.7733 28.7385 97.5182 27.8209 95.6831 27.8209C93.8479 27.8209 92.5928 28.749 92.5928 30.099C92.5928 31.1748 93.3944 31.8076 95.3561 32.2928L97.0331 32.7041C100.155 33.4424 101.452 34.6975 101.452 36.9229C101.452 39.7705 99.1846 41.5529 95.5776 41.5529C92.2026 41.5529 89.9245 39.8127 89.7768 37.06ZM103.398 27.5783H105.687V30.2045H107.796V32.008H105.687V38.1252C105.687 39.085 106.109 39.5174 107.037 39.5174C107.269 39.5174 107.638 39.4963 107.786 39.4646V41.2682C107.533 41.3314 107.026 41.3736 106.52 41.3736C104.274 41.3736 103.398 40.5193 103.398 38.3783V32.008H101.785V30.2045H103.398V27.5783ZM113.603 41.5107C110.428 41.5107 108.34 39.3275 108.34 35.7521C108.34 32.1873 110.439 30.0041 113.603 30.0041C116.767 30.0041 118.866 32.1873 118.866 35.7521C118.866 39.3275 116.777 41.5107 113.603 41.5107ZM113.603 39.6334C115.396 39.6334 116.545 38.2201 116.545 35.7521C116.545 33.2947 115.385 31.8814 113.603 31.8814C111.82 31.8814 110.66 33.2947 110.66 35.7521C110.66 38.2201 111.82 39.6334 113.603 39.6334ZM120.063 41.2998V30.2045H122.236V32.0924H122.288C122.657 30.7951 123.649 30.0252 124.957 30.0252C125.284 30.0252 125.568 30.0779 125.737 30.1096V32.2295C125.558 32.1557 125.157 32.1029 124.714 32.1029C123.248 32.1029 122.341 33.0838 122.341 34.6553V41.2998H120.063ZM130.742 31.8393C129.149 31.8393 128.031 33.0521 127.915 34.7291H133.463C133.41 33.0311 132.334 31.8393 130.742 31.8393ZM133.452 38.0408H135.615C135.298 40.0658 133.379 41.5107 130.837 41.5107C127.578 41.5107 125.606 39.3064 125.606 35.8049C125.606 32.3244 127.609 30.0041 130.742 30.0041C133.822 30.0041 135.741 32.1768 135.741 35.5412V36.3217H127.905V36.4588C127.905 38.3889 129.065 39.665 130.89 39.665C132.187 39.665 133.147 39.0111 133.452 38.0408Z" fill="white"/>
</svg>
